<?xml version='1.0' encoding='utf-8'?>
<svg xmlns="http://www.w3.org/2000/svg" width="56.882mm" height="34.719mm" version="1.1" viewBox="0 0 56.882 34.719"><g transform="translate(-125.41 -195.57)"><g transform="translate(-3.6667e-7 79.375)"><g transform="matrix(.57109 -.15302 .15302 .57109 -7.7512 62.72)"><rect x="190.9" y="158.77" width="51.181" height="40.347" ry="3.5491" fill="#aad6f9"/><path transform="matrix(.70856 -.70565 .70856 .70565 0 0)" d="m35.773 291.73c-0.94209-0.9421-2.2448-1.5231-3.6886-1.5231l-24.056-1.8e-4 19.205 19.205c1.3874 1.3874 3.6261 1.3828 5.0193-0.0103l5.0442-5.0442 1.28e-4 -8.9379c0-1.4438-0.58137-2.7469-1.5235-3.689z" fill="#539a6d"/><circle cx="225.89" cy="170.67" r="5.9774" fill="#ffda56"/><path transform="matrix(.70856 -.70565 .70856 .70565 0 0)" d="m21.972 270.43c-0.94209-0.94209-2.2448-1.5231-3.6886-1.5231l-17.77 4e-5 -4.3778 4.3778c-1.3932 1.3932-1.3978 3.6318-0.010332 5.0193l27.37 27.37-8.5e-5 -31.555c0-1.4438-0.58137-2.7468-1.5235-3.689z" fill="#ffda56"/></g><path transform="rotate(-15)" d="m117.74 152.49c-0.13684-0.0279-0.27879-0.0425-0.4241-0.0425l-26.064 2e-5c-1.1625 0-2.0982 0.93583-2.0982 2.0983l-1.18e-4 16.005 2.21e-4 3.653c0 0.14531 0.01477 0.28706 0.04263 0.4239 0.02786 0.13685 0.06878 0.26867 0.12173 0.39428 0.05295 0.1256 0.11754 0.245 0.19281 0.3566 0.07527 0.11161 0.16119 0.2156 0.25601 0.31042 0.09258 0.0926 0.19417 0.17568 0.30279 0.24965 0.0054 4e-3 0.01089 7e-3 0.01636 0.0108 0.10918 0.0729 0.22511 0.13673 0.34756 0.18836 0.12545 0.0529 0.25765 0.0938 0.39431 0.1217 1.64e-4 4e-5 3.36e-4 1e-4 4.99e-4 1.4e-4 0.13684 0.0279 0.27829 0.0423 0.4236 0.0423l12.159-3e-5 10.773 3.5e-4 -3.6e-4 -6.4e-4 3.1313 1.6e-4c1e-3 0 2e-3 -6e-5 4e-3 -6e-5 0.14398-2.6e-4 0.28485-0.0143 0.4205-0.0419 0.13685-0.0279 0.2688-0.0693 0.39441-0.12223 0.12334-0.052 0.23992-0.11574 0.34978-0.18929 2e-3 -1e-3 4e-3 -2e-3 6e-3 -4e-3s4e-3 -4e-3 7e-3 -5e-3c0.10894-0.0741 0.21086-0.15803 0.30369-0.25086 0.0948-0.0948 0.18064-0.1986 0.25592-0.3102 0.0753-0.1116 0.13994-0.23091 0.19289-0.35652 0.053-0.1256 0.0943-0.25734 0.12221-0.39418 0.0279-0.13684 0.0425-0.27879 0.0425-0.4241l-2e-5 -4.2088-2.1e-4 -15.449c0-1.0172-0.71618-1.8612-1.6741-2.0562z" fill="none" stroke="#f9f9f9" stroke-linecap="round" stroke-linejoin="round" stroke-width="1.254"/></g><g transform="translate(21.167 79.375)"><g transform="matrix(.57109 -.15302 .15302 .57109 -7.7512 62.72)"><rect x="190.9" y="158.77" width="51.181" height="40.347" ry="3.5491" fill="#aad6f9"/><path transform="matrix(.70856 -.70565 .70856 .70565 0 0)" d="m35.773 291.73c-0.94209-0.9421-2.2448-1.5231-3.6886-1.5231l-24.056-1.8e-4 19.205 19.205c1.3874 1.3874 3.6261 1.3828 5.0193-0.0103l5.0442-5.0442 1.28e-4 -8.9379c0-1.4438-0.58137-2.7469-1.5235-3.689z" fill="#539a6d"/><circle cx="225.89" cy="170.67" r="5.9774" fill="#ffda56"/><path transform="matrix(.70856 -.70565 .70856 .70565 0 0)" d="m21.972 270.43c-0.94209-0.94209-2.2448-1.5231-3.6886-1.5231l-17.77 4e-5 -4.3778 4.3778c-1.3932 1.3932-1.3978 3.6318-0.010332 5.0193l27.37 27.37-8.5e-5 -31.555c0-1.4438-0.58137-2.7468-1.5235-3.689z" fill="#ffda56"/></g><path transform="rotate(-15)" d="m117.74 152.49c-0.13684-0.0279-0.27879-0.0425-0.4241-0.0425l-26.064 2e-5c-1.1625 0-2.0982 0.93583-2.0982 2.0983l-1.18e-4 16.005 2.21e-4 3.653c0 0.14531 0.01477 0.28706 0.04263 0.4239 0.02786 0.13685 0.06878 0.26867 0.12173 0.39428 0.05295 0.1256 0.11754 0.245 0.19281 0.3566 0.07527 0.11161 0.16119 0.2156 0.25601 0.31042 0.09258 0.0926 0.19417 0.17568 0.30279 0.24965 0.0054 4e-3 0.01089 7e-3 0.01636 0.0108 0.10918 0.0729 0.22511 0.13673 0.34756 0.18836 0.12545 0.0529 0.25765 0.0938 0.39431 0.1217 1.64e-4 4e-5 3.36e-4 1e-4 4.99e-4 1.4e-4 0.13684 0.0279 0.27829 0.0423 0.4236 0.0423l12.159-3e-5 10.773 3.5e-4 -3.6e-4 -6.4e-4 3.1313 1.6e-4c1e-3 0 2e-3 -6e-5 4e-3 -6e-5 0.14398-2.6e-4 0.28485-0.0143 0.4205-0.0419 0.13685-0.0279 0.2688-0.0693 0.39441-0.12223 0.12334-0.052 0.23992-0.11574 0.34978-0.18929 2e-3 -1e-3 4e-3 -2e-3 6e-3 -4e-3s4e-3 -4e-3 7e-3 -5e-3c0.10894-0.0741 0.21086-0.15803 0.30369-0.25086 0.0948-0.0948 0.18064-0.1986 0.25592-0.3102 0.0753-0.1116 0.13994-0.23091 0.19289-0.35652 0.053-0.1256 0.0943-0.25734 0.12221-0.39418 0.0279-0.13684 0.0425-0.27879 0.0425-0.4241l-2e-5 -4.2088-2.1e-4 -15.449c0-1.0172-0.71618-1.8612-1.6741-2.0562z" fill="none" stroke="#f9f9f9" stroke-linecap="round" stroke-linejoin="round" stroke-width="1.254"/></g><g transform="rotate(15 -175.64 231.77)"><g transform="matrix(.57109 -.15302 .15302 .57109 -7.7512 62.72)"><rect x="190.9" y="158.77" width="51.181" height="40.347" ry="3.5491" fill="#aad6f9"/><path transform="matrix(.70856 -.70565 .70856 .70565 0 0)" d="m35.773 291.73c-0.94209-0.9421-2.2448-1.5231-3.6886-1.5231l-24.056-1.8e-4 19.205 19.205c1.3874 1.3874 3.6261 1.3828 5.0193-0.0103l5.0442-5.0442 1.28e-4 -8.9379c0-1.4438-0.58137-2.7469-1.5235-3.689z" fill="#539a6d"/><circle cx="225.89" cy="170.67" r="5.9774" fill="#ffda56"/><path transform="matrix(.70856 -.70565 .70856 .70565 0 0)" d="m21.972 270.43c-0.94209-0.94209-2.2448-1.5231-3.6886-1.5231l-17.77 4e-5 -4.3778 4.3778c-1.3932 1.3932-1.3978 3.6318-0.010332 5.0193l27.37 27.37-8.5e-5 -31.555c0-1.4438-0.58137-2.7468-1.5235-3.689z" fill="#ffda56"/></g><path transform="rotate(-15)" d="m117.74 152.49c-0.13684-0.0279-0.27879-0.0425-0.4241-0.0425l-26.064 2e-5c-1.1625 0-2.0982 0.93583-2.0982 2.0983l-1.18e-4 16.005 2.21e-4 3.653c0 0.14531 0.01477 0.28706 0.04263 0.4239 0.02786 0.13685 0.06878 0.26867 0.12173 0.39428 0.05295 0.1256 0.11754 0.245 0.19281 0.3566 0.07527 0.11161 0.16119 0.2156 0.25601 0.31042 0.09258 0.0926 0.19417 0.17568 0.30279 0.24965 0.0054 4e-3 0.01089 7e-3 0.01636 0.0108 0.10918 0.0729 0.22511 0.13673 0.34756 0.18836 0.12545 0.0529 0.25765 0.0938 0.39431 0.1217 1.64e-4 4e-5 3.36e-4 1e-4 4.99e-4 1.4e-4 0.13684 0.0279 0.27829 0.0423 0.4236 0.0423l12.159-3e-5 10.773 3.5e-4 -3.6e-4 -6.4e-4 3.1313 1.6e-4c1e-3 0 2e-3 -6e-5 4e-3 -6e-5 0.14398-2.6e-4 0.28485-0.0143 0.4205-0.0419 0.13685-0.0279 0.2688-0.0693 0.39441-0.12223 0.12334-0.052 0.23992-0.11574 0.34978-0.18929 2e-3 -1e-3 4e-3 -2e-3 6e-3 -4e-3s4e-3 -4e-3 7e-3 -5e-3c0.10894-0.0741 0.21086-0.15803 0.30369-0.25086 0.0948-0.0948 0.18064-0.1986 0.25592-0.3102 0.0753-0.1116 0.13994-0.23091 0.19289-0.35652 0.053-0.1256 0.0943-0.25734 0.12221-0.39418 0.0279-0.13684 0.0425-0.27879 0.0425-0.4241l-2e-5 -4.2088-2.1e-4 -15.449c0-1.0172-0.71618-1.8612-1.6741-2.0562z" fill="none" stroke="#f9f9f9" stroke-linecap="round" stroke-linejoin="round" stroke-width="1.254"/></g></g></svg>